<svg width="1600" height="1200" viewBox="0 0 1600 1200" fill="none" xmlns="http://www.w3.org/2000/svg">
  <rect width="1600" height="1200" fill="#140F0D"/>
  <g opacity="0.9">
    <ellipse cx="1160" cy="590" rx="540" ry="470" fill="url(#paint0_radial)"/>
    <ellipse cx="1070" cy="480" rx="360" ry="260" fill="url(#paint1_radial)"/>
    <ellipse cx="1220" cy="760" rx="420" ry="300" fill="url(#paint2_radial)"/>
  </g>
  <g opacity="0.95">
    <path d="M776 703C834 530 1082 445 1217 518C1390 612 1294 892 1089 911C915 926 713 844 776 703Z" fill="url(#paint3_linear)"/>
    <path d="M702 523C787 365 1091 311 1247 403C1412 500 1379 768 1189 825C1001 881 607 699 702 523Z" fill="url(#paint4_linear)"/>
    <path d="M830 371C949 247 1236 238 1330 386C1419 526 1325 700 1147 713C984 724 695 512 830 371Z" fill="url(#paint5_linear)"/>
    <path d="M953 285C1036 213 1202 201 1281 244C1367 292 1392 413 1329 498C1249 606 989 621 886 500C804 404 871 357 953 285Z" fill="url(#paint6_linear)"/>
  </g>
  <g opacity="0.55">
    <path d="M897 397C1030 315 1223 325 1286 395C1333 447 1320 515 1243 553C1114 619 928 595 858 510C821 466 827 439 897 397Z" stroke="url(#paint7_linear)" stroke-width="18" stroke-linecap="round"/>
    <path d="M841 555C982 470 1215 464 1298 554C1361 622 1343 716 1249 779C1097 880 827 863 731 739C671 661 700 640 841 555Z" stroke="url(#paint8_linear)" stroke-width="22" stroke-linecap="round"/>
  </g>
  <circle cx="1025" cy="251" r="6" fill="#D4AF37" fill-opacity="0.72"/>
  <circle cx="1184" cy="192" r="4" fill="#F4D98B" fill-opacity="0.86"/>
  <circle cx="1329" cy="306" r="5" fill="#E8C660" fill-opacity="0.82"/>
  <defs>
    <radialGradient id="paint0_radial" cx="0" cy="0" r="1" gradientUnits="userSpaceOnUse" gradientTransform="translate(1137 590) rotate(90) scale(470 540)">
      <stop stop-color="#4E2C1D"/>
      <stop offset="0.5" stop-color="#281714"/>
      <stop offset="1" stop-color="#140F0D"/>
    </radialGradient>
    <radialGradient id="paint1_radial" cx="0" cy="0" r="1" gradientUnits="userSpaceOnUse" gradientTransform="translate(1070 480) rotate(90) scale(260 360)">
      <stop stop-color="#71412D"/>
      <stop offset="1" stop-color="#1E1210" stop-opacity="0"/>
    </radialGradient>
    <radialGradient id="paint2_radial" cx="0" cy="0" r="1" gradientUnits="userSpaceOnUse" gradientTransform="translate(1220 760) rotate(90) scale(300 420)">
      <stop stop-color="#6A3A28"/>
      <stop offset="1" stop-color="#1A110E" stop-opacity="0"/>
    </radialGradient>
    <linearGradient id="paint3_linear" x1="849" y1="511" x2="1227" y2="935" gradientUnits="userSpaceOnUse">
      <stop stop-color="#2C1713"/>
      <stop offset="0.35" stop-color="#5F331F"/>
      <stop offset="0.7" stop-color="#241310"/>
      <stop offset="1" stop-color="#7E5D3A"/>
    </linearGradient>
    <linearGradient id="paint4_linear" x1="794" y1="360" x2="1265" y2="849" gradientUnits="userSpaceOnUse">
      <stop stop-color="#130B0B"/>
      <stop offset="0.28" stop-color="#4A2418"/>
      <stop offset="0.67" stop-color="#7A4328"/>
      <stop offset="1" stop-color="#231412"/>
    </linearGradient>
    <linearGradient id="paint5_linear" x1="904" y1="254" x2="1255" y2="708" gradientUnits="userSpaceOnUse">
      <stop stop-color="#77432B"/>
      <stop offset="0.45" stop-color="#2A1814"/>
      <stop offset="1" stop-color="#8B6338"/>
    </linearGradient>
    <linearGradient id="paint6_linear" x1="972" y1="202" x2="1250" y2="580" gradientUnits="userSpaceOnUse">
      <stop stop-color="#A87842"/>
      <stop offset="0.25" stop-color="#4D2819"/>
      <stop offset="0.68" stop-color="#231413"/>
      <stop offset="1" stop-color="#D4AF37"/>
    </linearGradient>
    <linearGradient id="paint7_linear" x1="884" y1="333" x2="1277" y2="581" gradientUnits="userSpaceOnUse">
      <stop stop-color="#F4D98B"/>
      <stop offset="1" stop-color="#D4AF37" stop-opacity="0.15"/>
    </linearGradient>
    <linearGradient id="paint8_linear" x1="815" y1="488" x2="1282" y2="818" gradientUnits="userSpaceOnUse">
      <stop stop-color="#F5E6B0"/>
      <stop offset="1" stop-color="#D4AF37" stop-opacity="0.2"/>
    </linearGradient>
  </defs>
</svg>
